<svg width="56" height="17" viewBox="0 0 56 17" fill="none" xmlns="http://www.w3.org/2000/svg">
<path d="M3.98979 13.447C3.53525 13.447 3.13397 13.3322 2.78596 13.1025C2.43794 12.8705 2.16569 12.5438 1.96919 12.1224C1.7727 11.6986 1.67445 11.1979 1.67445 10.6203C1.67445 10.0474 1.7727 9.55019 1.96919 9.12879C2.16569 8.70739 2.43913 8.38187 2.78951 8.15223C3.13989 7.92259 3.54471 7.80777 4.004 7.80777C4.35911 7.80777 4.63965 7.86695 4.84561 7.98532C5.05395 8.10133 5.21257 8.2339 5.32147 8.38305C5.43274 8.52983 5.51915 8.65057 5.5807 8.74527H5.65172V6.06061H6.48979V13.3333H5.68013V12.4953H5.5807C5.51915 12.5947 5.43155 12.7202 5.31792 12.8717C5.20428 13.0208 5.04211 13.1546 4.83141 13.273C4.62071 13.389 4.34017 13.447 3.98979 13.447ZM4.10343 12.6941C4.4396 12.6941 4.72369 12.6065 4.9557 12.4313C5.18771 12.2538 5.36408 12.0088 5.48482 11.6963C5.60556 11.3814 5.66593 11.018 5.66593 10.6061C5.66593 10.1989 5.60674 9.84257 5.48837 9.53717C5.37 9.22941 5.19481 8.9903 4.9628 8.81984C4.73079 8.64702 4.44434 8.56061 4.10343 8.56061C3.74831 8.56061 3.45239 8.65175 3.21564 8.83405C2.98127 9.01397 2.80489 9.259 2.68652 9.56913C2.57052 9.8769 2.51252 10.2225 2.51252 10.6061C2.51252 10.9943 2.5717 11.3471 2.69007 11.6643C2.81081 11.9792 2.98837 12.2301 3.22275 12.4171C3.45949 12.6018 3.75305 12.6941 4.10343 12.6941ZM10.428 13.447C9.90243 13.447 9.44907 13.331 9.06792 13.099C8.68913 12.8646 8.39675 12.5379 8.19078 12.1188C7.98719 11.6974 7.88539 11.2074 7.88539 10.6487C7.88539 10.09 7.98719 9.59754 8.19078 9.1714C8.39675 8.7429 8.68321 8.40909 9.05016 8.16998C9.41948 7.92851 9.85035 7.80777 10.3428 7.80777C10.6269 7.80777 10.9074 7.85512 11.1844 7.94981C11.4614 8.04451 11.7135 8.19839 11.9408 8.41146C12.1681 8.62216 12.3492 8.90152 12.4841 9.24953C12.6191 9.59754 12.6865 10.026 12.6865 10.535V10.8902H8.48198V10.1657H11.8343C11.8343 9.85796 11.7727 9.58334 11.6496 9.34186C11.5289 9.10038 11.356 8.9098 11.1311 8.77013C10.9086 8.63045 10.6458 8.56061 10.3428 8.56061C10.009 8.56061 9.72014 8.64347 9.4763 8.80919C9.23482 8.97254 9.04898 9.18561 8.91877 9.44839C8.78856 9.71118 8.72346 9.9929 8.72346 10.2936V10.7765C8.72346 11.1884 8.79448 11.5376 8.93652 11.8241C9.08094 12.1082 9.28098 12.3248 9.53667 12.474C9.79235 12.6207 10.0895 12.6941 10.428 12.6941C10.6482 12.6941 10.847 12.6634 11.0246 12.6018C11.2045 12.5379 11.3596 12.4432 11.4898 12.3177C11.62 12.1899 11.7206 12.0313 11.7916 11.8419L12.6013 12.0691C12.5161 12.3438 12.3728 12.5852 12.1716 12.7936C11.9704 12.9995 11.7218 13.1605 11.4259 13.2765C11.1299 13.3902 10.7973 13.447 10.428 13.447ZM14.4399 7.87879L15.7467 10.1089L17.0535 7.87879H18.0194L16.2581 10.6061L18.0194 13.3333H17.0535L15.7467 11.2169L14.4399 13.3333H13.474L15.2069 10.6061L13.474 7.87879H14.4399ZM19.8403 7.87879L21.1471 10.1089L22.4539 7.87879H23.4198L21.6585 10.6061L23.4198 13.3333H22.4539L21.1471 11.2169L19.8403 13.3333H18.8744L20.6073 10.6061L18.8744 7.87879H19.8403ZM24.6157 13.3333V7.87879H25.4253V8.70265H25.4822C25.5816 8.43277 25.7615 8.21378 26.0219 8.04569C26.2823 7.87761 26.5759 7.79356 26.9026 7.79356C26.9642 7.79356 27.0411 7.79475 27.1334 7.79711C27.2258 7.79948 27.2956 7.80303 27.343 7.80777V8.66004C27.3145 8.65294 27.2494 8.64228 27.1476 8.62808C27.0482 8.61151 26.9429 8.60322 26.8316 8.60322C26.5664 8.60322 26.3297 8.65886 26.1214 8.77013C25.9154 8.87903 25.752 9.03054 25.6313 9.22467C25.5129 9.41643 25.4537 9.63542 25.4537 9.88163V13.3333H24.6157ZM29.9415 13.4612C29.5959 13.4612 29.2822 13.3961 29.0004 13.2659C28.7187 13.1333 28.495 12.9427 28.3293 12.6941C28.1636 12.4432 28.0807 12.1402 28.0807 11.785C28.0807 11.4725 28.1423 11.2192 28.2654 11.0251C28.3885 10.8286 28.553 10.6747 28.759 10.5634C28.9649 10.4522 29.1922 10.3693 29.4408 10.3149C29.6917 10.2581 29.9439 10.2131 30.1972 10.1799C30.5286 10.1373 30.7973 10.1054 31.0033 10.084C31.2116 10.0604 31.3631 10.0213 31.4578 9.96686C31.5549 9.91241 31.6034 9.81771 31.6034 9.68277V9.65436C31.6034 9.30398 31.5075 9.03173 31.3158 8.8376C31.1264 8.64347 30.8387 8.5464 30.4529 8.5464C30.0528 8.5464 29.7391 8.634 29.5118 8.80919C29.2845 8.98438 29.1247 9.1714 29.0324 9.37027L28.2369 9.08618C28.379 8.75474 28.5684 8.49669 28.8051 8.31203C29.0442 8.125 29.3047 7.99479 29.5864 7.9214C29.8705 7.84565 30.1498 7.80777 30.4244 7.80777C30.5996 7.80777 30.8009 7.82907 31.0281 7.87169C31.2578 7.91193 31.4791 7.99598 31.6922 8.12382C31.9076 8.25166 32.0864 8.4446 32.2284 8.70265C32.3705 8.9607 32.4415 9.30635 32.4415 9.73959V13.3333H31.6034V12.5947H31.5608C31.504 12.7131 31.4093 12.8397 31.2767 12.9747C31.1441 13.1096 30.9678 13.2244 30.7476 13.3191C30.5274 13.4138 30.2587 13.4612 29.9415 13.4612ZM30.0693 12.7083C30.4008 12.7083 30.6801 12.6432 30.9074 12.513C31.137 12.3828 31.3099 12.2147 31.4259 12.0088C31.5442 11.8028 31.6034 11.5862 31.6034 11.3589V10.5919C31.5679 10.6345 31.4898 10.6735 31.3691 10.709C31.2507 10.7422 31.1134 10.7718 30.9571 10.7978C30.8032 10.8215 30.6529 10.8428 30.5061 10.8617C30.3617 10.8783 30.2445 10.8925 30.1546 10.9044C29.9368 10.9328 29.7332 10.9789 29.5438 11.0429C29.3567 11.1044 29.2052 11.1979 29.0892 11.3234C28.9756 11.4465 28.9188 11.6146 28.9188 11.8277C28.9188 12.1188 29.0265 12.339 29.2419 12.4882C29.4597 12.6349 29.7355 12.7083 30.0693 12.7083ZM36.3433 7.87879V8.58902H33.5166V7.87879H36.3433ZM34.3405 6.57197H35.1785V11.7708C35.1785 12.0076 35.2129 12.1851 35.2815 12.3035C35.3525 12.4195 35.4425 12.4976 35.5514 12.5379C35.6627 12.5758 35.7799 12.5947 35.903 12.5947C35.9953 12.5947 36.0711 12.59 36.1302 12.5805C36.1894 12.5687 36.2368 12.5592 36.2723 12.5521L36.4427 13.3049C36.3859 13.3262 36.3066 13.3475 36.2048 13.3688C36.103 13.3925 35.974 13.4044 35.8177 13.4044C35.581 13.4044 35.349 13.3535 35.1217 13.2517C34.8968 13.1499 34.7098 12.9948 34.5606 12.7865C34.4139 12.5781 34.3405 12.3153 34.3405 11.9981V6.57197Z" fill="#1E1E1E"/>
<path d="M42.5741 14.0741V13.3704C42.5741 12.0639 43.093 10.811 44.0168 9.88722C44.9406 8.96343 46.1936 8.44445 47.5 8.44445M47.5 8.44445C48.8064 8.44445 50.0594 8.96343 50.9831 9.88722C51.9069 10.811 52.4259 12.0639 52.4259 13.3704V14.0741M47.5 8.44445C48.2465 8.44445 48.9625 8.14789 49.4904 7.62001C50.0182 7.09212 50.3148 6.37617 50.3148 5.62963C50.3148 4.88309 50.0182 4.16714 49.4904 3.63926C48.9625 3.11138 48.2465 2.81482 47.5 2.81482C46.7535 2.81482 46.0375 3.11138 45.5096 3.63926C44.9817 4.16714 44.6852 4.88309 44.6852 5.62963C44.6852 6.37617 44.9817 7.09212 45.5096 7.62001C46.0375 8.14789 46.7535 8.44445 47.5 8.44445Z" stroke="#1E1E1E" stroke-width="0.7" stroke-linecap="round" stroke-linejoin="round"/>
</svg>
