<svg width="208" height="38" viewBox="0 0 208 38" fill="none" xmlns="http://www.w3.org/2000/svg">
<rect width="207.944" height="38" rx="5" fill="#507DC3"/>
<path d="M90.8691 14.7171C90.8047 14.0694 90.5187 13.5542 90.0111 13.1717C89.5036 12.7891 88.8653 12.5978 88.0964 12.5978C87.5547 12.5978 87.0774 12.6906 86.6645 12.8762C86.2555 13.0618 85.9335 13.3194 85.6986 13.6489C85.4676 13.9747 85.352 14.3459 85.352 14.7626C85.352 15.0694 85.4183 15.3383 85.5509 15.5694C85.6835 15.8005 85.8615 15.9993 86.085 16.166C86.3123 16.3289 86.5623 16.469 86.835 16.5864C87.1115 16.7039 87.3899 16.8024 87.6702 16.8819L88.8975 17.2342C89.2687 17.3364 89.6399 17.4671 90.0111 17.6262C90.3824 17.7853 90.7214 17.9861 91.0282 18.2285C91.3388 18.4671 91.5869 18.7607 91.7725 19.1092C91.9619 19.4539 92.0566 19.8686 92.0566 20.3535C92.0566 20.9747 91.8956 21.5334 91.5736 22.0296C91.2517 22.5258 90.7896 22.9198 90.1873 23.2114C89.585 23.4993 88.8634 23.6433 88.0225 23.6433C87.2308 23.6433 86.5433 23.5126 85.96 23.2512C85.3767 22.9861 84.9183 22.6205 84.585 22.1546C84.2517 21.6887 84.0642 21.1489 84.0225 20.5353H85.1134C85.1513 20.9936 85.3028 21.3819 85.568 21.7001C85.8331 22.0183 86.1778 22.2607 86.602 22.4274C87.0263 22.5902 87.4998 22.6717 88.0225 22.6717C88.602 22.6717 89.1172 22.5751 89.568 22.3819C90.0225 22.1849 90.3786 21.9122 90.6361 21.5637C90.8975 21.2114 91.0282 20.8024 91.0282 20.3364C91.0282 19.9425 90.9259 19.613 90.7214 19.3478C90.5168 19.0789 90.2308 18.8535 89.8634 18.6717C89.4998 18.4899 89.0774 18.3289 88.5964 18.1887L87.2043 17.7796C86.2914 17.5069 85.5831 17.13 85.0793 16.6489C84.5755 16.1679 84.3236 15.5542 84.3236 14.808C84.3236 14.183 84.4903 13.6338 84.8236 13.1603C85.1608 12.683 85.6153 12.3118 86.1873 12.0467C86.763 11.7777 87.4089 11.6433 88.1248 11.6433C88.8483 11.6433 89.4884 11.7758 90.0452 12.041C90.602 12.3061 91.0433 12.6717 91.3691 13.1376C91.6986 13.5997 91.8748 14.1262 91.8975 14.7171H90.8691ZM93.5889 12.7626V11.808H102.026V12.7626H98.3389V23.4444H97.2764V12.7626H93.5889ZM102.756 23.4444H101.642L105.875 11.808H107.012L111.245 23.4444H110.131L106.483 13.1887H106.404L102.756 23.4444ZM103.557 18.9842H109.33V19.9387H103.557V18.9842ZM112.919 23.4444V11.808H116.675C117.5 11.808 118.19 11.9577 118.743 12.2569C119.3 12.5524 119.718 12.9633 119.999 13.4899C120.283 14.0126 120.425 14.613 120.425 15.291C120.425 15.969 120.283 16.5675 119.999 17.0864C119.718 17.6054 119.302 18.0107 118.749 18.3024C118.196 18.594 117.51 18.7399 116.692 18.7399H113.493V17.7683H116.663C117.269 17.7683 117.773 17.6679 118.175 17.4671C118.58 17.2664 118.881 16.9804 119.078 16.6092C119.279 16.238 119.379 15.7986 119.379 15.291C119.379 14.7834 119.279 14.3402 119.078 13.9614C118.877 13.5789 118.574 13.2834 118.169 13.0751C117.768 12.8667 117.26 12.7626 116.646 12.7626H113.982V23.4444H112.919ZM118.05 18.1944L120.913 23.4444H119.686L116.851 18.1944H118.05ZM121.988 12.7626V11.808H130.426V12.7626H126.738V23.4444H125.676V12.7626H121.988Z" fill="white"/>
</svg>
