<svg width="79" height="12" viewBox="0 0 79 12" fill="none" xmlns="http://www.w3.org/2000/svg">
<path d="M6.42543 11.8011C5.55611 11.8011 4.78764 11.6818 4.12003 11.4432C3.45241 11.2074 2.89134 10.8594 2.43679 10.3991C1.98224 9.93892 1.63849 9.375 1.40554 8.70739C1.17259 8.03977 1.05611 7.27557 1.05611 6.41477C1.05611 5.58239 1.17401 4.83807 1.4098 4.18182C1.64844 3.52557 1.99361 2.96875 2.44531 2.51136C2.89986 2.05114 3.45099 1.70028 4.09872 1.45881C4.74929 1.21733 5.48509 1.09659 6.30611 1.09659C7.1044 1.09659 7.80327 1.22727 8.4027 1.48864C9.00497 1.74716 9.50781 2.09801 9.91122 2.54119C10.3175 2.98153 10.6214 3.47727 10.8232 4.02841C11.0277 4.57955 11.13 5.14773 11.13 5.73295C11.13 6.14489 11.1101 6.5625 11.0703 6.9858C11.0305 7.40909 10.9467 7.7983 10.8189 8.15341C10.6911 8.50568 10.4936 8.78977 10.2266 9.00568C9.96236 9.22159 9.6044 9.32955 9.1527 9.32955C8.95384 9.32955 8.73509 9.2983 8.49645 9.2358C8.25781 9.1733 8.04616 9.0696 7.86151 8.92472C7.67685 8.77983 7.56747 8.58523 7.53338 8.34091H7.48224C7.41406 8.50568 7.30895 8.66193 7.1669 8.80966C7.0277 8.95739 6.84446 9.07528 6.61719 9.16335C6.39276 9.25142 6.11861 9.28977 5.79474 9.27841C5.42543 9.2642 5.10014 9.18182 4.81889 9.03125C4.53764 8.87784 4.30185 8.67045 4.11151 8.40909C3.92401 8.14489 3.78196 7.83949 3.68537 7.4929C3.59162 7.14347 3.54474 6.76705 3.54474 6.36364C3.54474 5.98011 3.60156 5.62926 3.7152 5.31108C3.82884 4.9929 3.98651 4.71449 4.18821 4.47585C4.39276 4.23722 4.63139 4.04687 4.90412 3.90483C5.17969 3.75994 5.47656 3.67045 5.79474 3.63636C6.07884 3.60795 6.33736 3.62074 6.57031 3.67472C6.80327 3.72585 6.99503 3.80398 7.1456 3.90909C7.29616 4.01136 7.39134 4.125 7.43111 4.25H7.48224V3.77273H8.38565V7.625C8.38565 7.86364 8.45241 8.07386 8.58594 8.25568C8.71946 8.4375 8.91406 8.52841 9.16974 8.52841C9.45952 8.52841 9.68111 8.42898 9.83452 8.23011C9.99077 8.03125 10.0973 7.72443 10.1541 7.30966C10.2138 6.89489 10.2436 6.36364 10.2436 5.71591C10.2436 5.33523 10.1911 4.96023 10.0859 4.59091C9.98366 4.21875 9.82741 3.87074 9.61719 3.54688C9.4098 3.22301 9.14702 2.9375 8.82884 2.69034C8.51065 2.44318 8.13707 2.25 7.7081 2.1108C7.28196 1.96875 6.79759 1.89773 6.25497 1.89773C5.58736 1.89773 4.98935 2.00142 4.46094 2.20881C3.93537 2.41335 3.48793 2.71307 3.11861 3.10795C2.75213 3.5 2.4723 3.97727 2.27912 4.53977C2.08878 5.09943 1.99361 5.7358 1.99361 6.44886C1.99361 7.1733 2.08878 7.81676 2.27912 8.37926C2.4723 8.94176 2.75639 9.41619 3.13139 9.80256C3.50923 10.1889 3.97656 10.4815 4.53338 10.6804C5.0902 10.8821 5.73224 10.983 6.45952 10.983C6.77202 10.983 7.08026 10.9531 7.38423 10.8935C7.68821 10.8338 7.95668 10.7685 8.18963 10.6974C8.42259 10.6264 8.5902 10.5739 8.69247 10.5398L8.93111 11.3239C8.75497 11.3977 8.52486 11.4716 8.24077 11.5455C7.95952 11.6193 7.65838 11.6804 7.33736 11.7287C7.01918 11.777 6.7152 11.8011 6.42543 11.8011ZM5.93111 8.40909C6.31179 8.40909 6.62003 8.33239 6.85582 8.17898C7.09162 8.02557 7.26349 7.79403 7.37145 7.48438C7.4794 7.17472 7.53338 6.78409 7.53338 6.3125C7.53338 5.83523 7.47372 5.46307 7.3544 5.19602C7.23509 4.92898 7.05895 4.74148 6.82599 4.63352C6.59304 4.52557 6.30611 4.47159 5.9652 4.47159C5.64134 4.47159 5.36435 4.55682 5.13423 4.72727C4.90696 4.89489 4.73224 5.11932 4.61009 5.40057C4.49077 5.67898 4.43111 5.98295 4.43111 6.3125C4.43111 6.67614 4.4794 7.01847 4.57599 7.33949C4.67259 7.65767 4.83026 7.91619 5.04901 8.11506C5.26776 8.31108 5.56179 8.40909 5.93111 8.40909ZM15.1069 9.63636C14.5614 9.63636 14.0799 9.49858 13.6623 9.22301C13.2447 8.9446 12.918 8.55256 12.6822 8.04688C12.4464 7.53835 12.3285 6.9375 12.3285 6.24432C12.3285 5.55682 12.4464 4.96023 12.6822 4.45455C12.918 3.94886 13.2461 3.55824 13.6665 3.28267C14.087 3.0071 14.5728 2.86932 15.1239 2.86932C15.5501 2.86932 15.8867 2.94034 16.1339 3.08239C16.3839 3.22159 16.5742 3.38068 16.7049 3.55966C16.8384 3.7358 16.9421 3.88068 17.016 3.99432H17.1012V0.772727H18.1069V9.5H17.1353V8.49432H17.016C16.9421 8.61364 16.837 8.7642 16.7006 8.94602C16.5643 9.125 16.3697 9.28551 16.1168 9.42756C15.864 9.56676 15.5273 9.63636 15.1069 9.63636ZM15.2433 8.73295C15.6467 8.73295 15.9876 8.62784 16.266 8.41761C16.5444 8.20455 16.756 7.91051 16.9009 7.53551C17.0458 7.15767 17.1183 6.72159 17.1183 6.22727C17.1183 5.73864 17.0472 5.31108 16.9052 4.9446C16.7631 4.57528 16.5529 4.28835 16.2745 4.08381C15.9961 3.87642 15.6523 3.77273 15.2433 3.77273C14.8171 3.77273 14.462 3.8821 14.1779 4.10085C13.8967 4.31676 13.685 4.6108 13.543 4.98295C13.4038 5.35227 13.3342 5.76705 13.3342 6.22727C13.3342 6.69318 13.4052 7.11648 13.5472 7.49716C13.6921 7.875 13.9052 8.17614 14.1864 8.40057C14.4705 8.62216 14.8228 8.73295 15.2433 8.73295ZM22.8327 9.63636C22.2021 9.63636 21.658 9.49716 21.2006 9.21875C20.7461 8.9375 20.3952 8.54545 20.1481 8.04261C19.9038 7.53693 19.7816 6.94886 19.7816 6.27841C19.7816 5.60795 19.9038 5.01705 20.1481 4.50568C20.3952 3.99148 20.739 3.59091 21.1793 3.30398C21.6225 3.0142 22.1396 2.86932 22.7305 2.86932C23.0714 2.86932 23.408 2.92614 23.7404 3.03977C24.0728 3.15341 24.3754 3.33807 24.6481 3.59375C24.9208 3.84659 25.1381 4.18182 25.3001 4.59943C25.462 5.01705 25.543 5.53125 25.543 6.14205V6.56818H20.4975V5.69886H24.5202C24.5202 5.32955 24.4464 5 24.2987 4.71023C24.1538 4.42045 23.9464 4.19176 23.6765 4.02415C23.4094 3.85653 23.0941 3.77273 22.7305 3.77273C22.3299 3.77273 21.9833 3.87216 21.6907 4.07102C21.4009 4.26705 21.1779 4.52273 21.0217 4.83807C20.8654 5.15341 20.7873 5.49148 20.7873 5.85227V6.43182C20.7873 6.92614 20.8725 7.34517 21.043 7.68892C21.2163 8.02983 21.4563 8.28977 21.7631 8.46875C22.07 8.64489 22.4265 8.73295 22.8327 8.73295C23.0969 8.73295 23.3356 8.69602 23.5487 8.62216C23.7646 8.54545 23.9506 8.43182 24.1069 8.28125C24.2631 8.12784 24.3839 7.9375 24.4691 7.71023L25.4407 7.98295C25.3384 8.3125 25.1665 8.60227 24.9251 8.85227C24.6836 9.09943 24.3853 9.29261 24.0302 9.43182C23.6751 9.56818 23.2759 9.63636 22.8327 9.63636ZM27.647 2.95455L29.2152 5.63068L30.7834 2.95455H31.9425L29.8288 6.22727L31.9425 9.5H30.7834L29.2152 6.96023L27.647 9.5H26.4879L28.5675 6.22727L26.4879 2.95455H27.647ZM34.1275 2.95455L35.6957 5.63068L37.2638 2.95455H38.4229L36.3093 6.22727L38.4229 9.5H37.2638L35.6957 6.96023L34.1275 9.5H32.9684L35.0479 6.22727L32.9684 2.95455H34.1275ZM39.858 9.5V2.95455H40.8295V3.94318H40.8977C41.017 3.61932 41.233 3.35653 41.5455 3.15483C41.858 2.95312 42.2102 2.85227 42.6023 2.85227C42.6761 2.85227 42.7685 2.85369 42.8793 2.85653C42.9901 2.85937 43.0739 2.86364 43.1307 2.86932V3.89205C43.0966 3.88352 43.0185 3.87074 42.8963 3.85369C42.777 3.83381 42.6506 3.82386 42.517 3.82386C42.1989 3.82386 41.9148 3.89062 41.6648 4.02415C41.4176 4.15483 41.2216 4.33665 41.0767 4.5696C40.9347 4.79972 40.8636 5.0625 40.8636 5.35795V9.5H39.858ZM46.2489 9.65341C45.8342 9.65341 45.4577 9.57528 45.1197 9.41903C44.7816 9.25994 44.5131 9.03125 44.3143 8.73295C44.1154 8.43182 44.016 8.06818 44.016 7.64205C44.016 7.26705 44.0898 6.96307 44.2376 6.73011C44.3853 6.49432 44.5827 6.30966 44.8299 6.17614C45.0771 6.04261 45.3498 5.94318 45.6481 5.87784C45.9492 5.80966 46.2518 5.75568 46.5558 5.71591C46.9535 5.66477 47.2759 5.62642 47.5231 5.60085C47.7731 5.57244 47.9549 5.52557 48.0685 5.46023C48.185 5.39489 48.2433 5.28125 48.2433 5.11932V5.08523C48.2433 4.66477 48.1282 4.33807 47.8981 4.10511C47.6708 3.87216 47.3256 3.75568 46.8626 3.75568C46.3825 3.75568 46.006 3.8608 45.7333 4.07102C45.4606 4.28125 45.2688 4.50568 45.158 4.74432L44.2035 4.40341C44.3739 4.00568 44.6012 3.69602 44.8853 3.47443C45.1722 3.25 45.4847 3.09375 45.8228 3.00568C46.1637 2.91477 46.4989 2.86932 46.8285 2.86932C47.0387 2.86932 47.2802 2.89489 47.5529 2.94602C47.8285 2.99432 48.0941 3.09517 48.3498 3.24858C48.6083 3.40199 48.8228 3.63352 48.9933 3.94318C49.1637 4.25284 49.2489 4.66761 49.2489 5.1875V9.5H48.2433V8.61364H48.1921C48.1239 8.75568 48.0103 8.90767 47.8512 9.0696C47.6921 9.23153 47.4805 9.36932 47.2163 9.48295C46.9521 9.59659 46.6296 9.65341 46.2489 9.65341ZM46.4023 8.75C46.8001 8.75 47.1353 8.67188 47.408 8.51562C47.6836 8.35938 47.891 8.15767 48.0302 7.91051C48.1722 7.66335 48.2433 7.40341 48.2433 7.13068V6.21023C48.2006 6.26136 48.1069 6.30824 47.962 6.35085C47.82 6.39062 47.6552 6.42614 47.4677 6.45739C47.283 6.4858 47.1026 6.51136 46.9265 6.53409C46.7532 6.55398 46.6126 6.57102 46.5046 6.58523C46.2433 6.61932 45.9989 6.67472 45.7717 6.75142C45.5472 6.82528 45.3654 6.9375 45.2262 7.08807C45.0898 7.2358 45.0217 7.4375 45.0217 7.69318C45.0217 8.04261 45.1509 8.30682 45.4094 8.4858C45.6708 8.66193 46.0018 8.75 46.4023 8.75ZM53.9311 2.95455V3.80682H50.5391V2.95455H53.9311ZM51.5277 1.38636H52.5334V7.625C52.5334 7.90909 52.5746 8.12216 52.657 8.2642C52.7422 8.40341 52.8501 8.49716 52.9808 8.54545C53.1143 8.59091 53.255 8.61364 53.4027 8.61364C53.5135 8.61364 53.6044 8.60795 53.6754 8.59659C53.7464 8.58239 53.8033 8.57102 53.8459 8.5625L54.0504 9.46591C53.9822 9.49148 53.8871 9.51705 53.7649 9.54261C53.6428 9.57102 53.4879 9.58523 53.3004 9.58523C53.0163 9.58523 52.7379 9.52415 52.4652 9.40199C52.1953 9.27983 51.9709 9.09375 51.7919 8.84375C51.6158 8.59375 51.5277 8.27841 51.5277 7.89773V1.38636Z" fill="#706161"/>
<path d="M77 2L71 8L65 2" stroke="#507DC3"/>
</svg>
