<svg width="60" height="22" viewBox="0 0 60 22" fill="none" xmlns="http://www.w3.org/2000/svg">
<path d="M18 0L4.07813 19.9062H12.7656C14.099 19.9062 15.1198 19.6146 15.8281 19.0312C16.5469 18.4479 17.1823 17.2656 17.7344 15.4844L18.25 15.5781L17.25 21.1875H7.62939e-06V20.6094L13.5938 1.26562H6.81251C6.25001 1.26562 5.77084 1.29688 5.37501 1.35938C4.98959 1.42188 4.65626 1.51562 4.37501 1.64062C4.09376 1.75521 3.85938 1.90104 3.67188 2.07812C3.4948 2.25521 3.33855 2.46354 3.20313 2.70312C2.94272 3.14062 2.70313 4.00521 2.48438 5.29688H1.89063L2.32813 0H18ZM24.8838 1.15625V9.53125H29.54C30.2171 9.53125 30.764 9.47396 31.1806 9.35938C31.6077 9.23438 31.9411 9.04688 32.1806 8.79688C32.4202 8.53646 32.5869 8.21354 32.6806 7.82812C32.7744 7.44271 32.8369 6.98438 32.8681 6.45312H33.4463V13.8281H32.8681C32.7952 13.3073 32.7223 12.8854 32.6494 12.5625C32.5765 12.2292 32.5036 11.9896 32.4306 11.8438C32.3369 11.6562 32.2171 11.4948 32.0713 11.3594C31.9254 11.2135 31.7379 11.0885 31.5088 10.9844C31.2796 10.8802 31.0036 10.8021 30.6806 10.75C30.3577 10.6979 29.9775 10.6719 29.54 10.6719H24.8838V17.6562C24.8838 18.5833 24.9254 19.1562 25.0088 19.375C25.0504 19.4688 25.1025 19.5573 25.165 19.6406C25.2275 19.724 25.3161 19.7969 25.4306 19.8594C25.5556 19.9115 25.7119 19.9531 25.8994 19.9844C26.0973 20.0156 26.3421 20.0312 26.6338 20.0312H30.2275C30.8421 20.0312 31.3525 20.0156 31.7588 19.9844C32.1754 19.9427 32.5348 19.8802 32.8369 19.7969C33.1494 19.7031 33.4202 19.5781 33.6494 19.4219C33.889 19.2552 34.139 19.0469 34.3994 18.7969C34.7223 18.4844 35.0504 18.0833 35.3838 17.5938C35.7171 17.1042 36.0504 16.5312 36.3838 15.875H37.0088L35.1806 21.1875H18.8525V20.6094H19.6025C19.8004 20.6094 20.0088 20.5885 20.2275 20.5469C20.4463 20.5052 20.6494 20.4375 20.8369 20.3438C21.0348 20.25 21.2119 20.1354 21.3681 20C21.5244 19.8542 21.6338 19.6875 21.6963 19.5C21.8213 19.1771 21.8838 18.4948 21.8838 17.4531V3.6875C21.8838 2.35417 21.7483 1.52604 21.4775 1.20312C21.1025 0.786458 20.4775 0.578125 19.6025 0.578125H18.8525V0H35.1806V4.64062H34.8056C34.6911 4.07812 34.5765 3.61458 34.4619 3.25C34.3473 2.88542 34.2171 2.58333 34.0713 2.34375C33.9254 2.10417 33.7588 1.91667 33.5713 1.78125C33.3838 1.63542 33.1598 1.50521 32.8994 1.39062C32.4723 1.23438 31.7379 1.15625 30.6963 1.15625H24.8838ZM36.3769 0H42.1269L55.08 15.8906V3.67188C55.08 2.36979 54.9342 1.55729 54.6425 1.23438C54.2467 0.796875 53.6373 0.578125 52.8144 0.578125H52.08V0H59.455V0.578125H58.705C57.8092 0.578125 57.1738 0.848958 56.7988 1.39062C56.5696 1.71354 56.455 2.47396 56.455 3.67188V21.5312H55.8925L41.9238 4.46875V17.5156C41.9238 18.8177 42.0644 19.6302 42.3456 19.9531C42.7311 20.3906 43.3404 20.6094 44.1738 20.6094H44.9238V21.1875H37.5488V20.6094H38.2831C39.1894 20.6094 39.83 20.3385 40.205 19.7969C40.4342 19.474 40.5488 18.7135 40.5488 17.5156V2.78125C40.2363 2.41667 39.9758 2.125 39.7675 1.90625C39.5592 1.6875 39.3613 1.51042 39.1738 1.375C38.9863 1.22917 38.7831 1.11458 38.5644 1.03125C38.3456 0.9375 38.0748 0.833333 37.7519 0.71875C37.4498 0.625 36.9915 0.578125 36.3769 0.578125V0Z" fill="#2E2E2E"/>
</svg>
